<svg xmlns="http://www.w3.org/2000/svg" xmlns:xlink="http://www.w3.org/1999/xlink" id="Layer_1" x="0px" y="0px" viewBox="0 0 331.8 92" style="enable-background:new 0 0 331.8 92;" xml:space="preserve" width="331.8"  height="92" > <style type="text/css"> .st0{fill:#FFFFFF;} </style> <path class="st0" d="M24.9,74.9h18v-18h18V36.6H43.5V17.8H24.9V5C10.1,12.7,0,28.1,0,46c0,17.8,10.1,33.3,24.9,41V74.9z"/> <path class="st0" d="M46,0c-0.9,0-1.7,0-2.5,0.1v17.7H61v18.8h19.8v20.3H61v18H43v17c1,0.1,2,0.1,3,0.1c25.4,0,46-20.6,46-46 S71.4,0,46,0z"/> <g> <path class="st0" d="M114.2,13.2h5v29.1H145v4.5h-30.7V13.2H114.2z"/> <path class="st0" d="M170.9,47.3c-7,0-11.8-0.5-14.6-1.3c-2.8-0.9-4.5-2.6-5.3-5.1c-0.5-1.7-0.8-5.3-0.8-10.7 c0-5.5,0.2-9.1,0.7-10.7c0.8-2.6,2.5-4.3,5.3-5.2s7.7-1.4,14.6-1.4c7,0,11.8,0.5,14.6,1.3c2.8,0.9,4.5,2.6,5.3,5.2 c0.5,1.7,0.8,5.3,0.8,10.8s-0.2,9.1-0.7,10.7c-0.8,2.6-2.5,4.3-5.3,5.2C182.8,46.9,177.9,47.3,170.9,47.3z M170.9,42.8 c7.7,0,12.3-0.6,13.6-1.7c1.4-1.1,2.1-4.8,2.1-11s-0.7-9.9-2-11.1c-1.4-1.1-5.9-1.7-13.7-1.7s-12.3,0.6-13.7,1.7s-2,4.8-2,11.1 c0,6.2,0.7,9.8,2.1,11C158.6,42.2,163.1,42.8,170.9,42.8z"/> <path class="st0" d="M202.4,30.1c0,6.2,0.7,9.9,2,11.1S210,43,217.2,43c7,0,11.3-0.4,12.7-1.2c1.5-0.8,2.2-3.3,2.2-7.5h-16.2v-4.5 h21.2v4.5c0,5.8-1.2,9.4-3.5,10.9c-2.4,1.5-7.8,2.3-16.4,2.3c-8.7,0-14.2-1-16.4-3c-2.3-2-3.4-6.8-3.4-14.4s1.1-12.4,3.4-14.3 c2.2-1.9,7.7-2.9,16.5-2.9c8.6,0,14.1,0.6,16.4,1.9c2.3,1.3,3.5,4.5,3.5,9.5h-5c0-3.3-0.8-5.2-2.4-5.9c-1.6-0.7-5.8-1-12.6-1 c-7.3,0-11.6,0.6-12.9,1.7C203,20.2,202.4,23.9,202.4,30.1z"/> <path class="st0" d="M266.9,47.3c-7,0-11.8-0.5-14.6-1.3c-2.8-0.9-4.5-2.6-5.3-5.1c-0.5-1.7-0.8-5.3-0.8-10.7 c0-5.5,0.2-9.1,0.7-10.7c0.8-2.6,2.5-4.3,5.3-5.2s7.7-1.4,14.6-1.4c7,0,11.8,0.5,14.6,1.3c2.8,0.9,4.5,2.6,5.3,5.2 c0.5,1.7,0.8,5.3,0.8,10.8s-0.2,9.1-0.7,10.7c-0.8,2.6-2.5,4.3-5.3,5.2C278.8,46.9,273.9,47.3,266.9,47.3z M266.9,42.8 c7.7,0,12.3-0.6,13.6-1.7c1.4-1.1,2.1-4.8,2.1-11s-0.7-9.9-2-11.1c-1.4-1.1-5.9-1.7-13.7-1.7c-7.8,0-12.3,0.6-13.7,1.7 s-2,4.8-2,11.1c0,6.2,0.7,9.8,2.1,11C254.6,42.2,259.1,42.8,266.9,42.8z"/> <path class="st0" d="M313,28c7.8,0,12.7,0.5,14.8,1.4c2.5,1.1,3.8,3.9,3.8,8.2c0,4.1-1.5,6.8-4.6,8.1c-2.5,1-7.5,1.6-15.1,1.6 c-8.2,0-13.5-0.9-15.9-2.7c-1.8-1.4-2.7-4.4-2.7-9h5c0,3.2,0.7,5.2,2.1,6s5.2,1.2,11.5,1.2c6.1,0,10.1-0.3,11.9-0.9 c1.8-0.6,2.7-2,2.7-4.3s-0.7-3.7-2-4.3c-1.4-0.6-5.2-0.8-11.5-0.8c-7.7,0-12.9-0.9-15.6-2.8c-2-1.4-3-3.9-3-7.6 c0-4,1.2-6.5,3.7-7.7c2.4-1.2,7.4-1.7,14.9-1.7s12.4,0.9,14.8,2.7c1.9,1.4,2.8,4.3,2.8,8.4h-4.9c0-2.9-0.7-4.7-2.2-5.5 s-5-1.1-10.5-1.1c-4.7,0-7.6,0.1-8.7,0.2c-3.3,0.4-4.9,2-4.9,4.7c0,2.3,0.9,3.9,2.6,4.7C303.9,27.6,307.5,28,313,28z"/> </g> <g> <path class="st0" d="M128.4,71c0,0.9,0,1.7,0,2.2c0,0.6-0.1,1.1-0.2,1.5l1.4,0.9l-0.9,1.4l-1.3-0.8c-0.5,0.5-1.5,0.8-3,1 c-0.9,0.1-2.1,0.2-3.6,0.2c-2.6,0-4.3-0.2-5.4-0.5s-1.7-1-1.9-1.9c-0.2-0.6-0.3-2-0.3-3.9c0-2,0.1-3.3,0.3-3.9 c0.3-0.9,0.9-1.6,2-1.9s2.8-0.5,5.4-0.5s4.3,0.2,5.4,0.5c1,0.3,1.7,1,1.9,1.9C128.3,67.7,128.4,69,128.4,71z M125.7,75.1l-4.4-2.9 l0.9-1.4l4.2,2.9c0-0.2,0.1-0.6,0.1-1.1s0-1,0-1.5c0-2.3-0.2-3.6-0.7-4.1c-0.5-0.4-2.2-0.6-5-0.6s-4.5,0.2-5,0.6s-0.7,1.8-0.7,4.1 c0,2.3,0.3,3.6,0.8,4s2.2,0.6,5,0.6c1.4,0,2.5,0,3.2-0.1S125.4,75.3,125.7,75.1z"/> <path class="st0" d="M146.1,64.9l6.5,12.3h-2.1l-1.5-2.7h-8.8l-1.4,2.7h-2.1l6.5-12.3H146.1z M148.3,72.9l-3.3-6.5h-0.5l-3.3,6.5 H148.3z"/> <path class="st0" d="M183.2,64.9l6.5,12.3h-2.1l-1.5-2.7h-8.8l-1.4,2.7h-2.1l6.5-12.3H183.2z M185.3,72.9l-3.3-6.5h-0.5l-3.3,6.5 H185.3z"/> <path class="st0" d="M199.1,71.1c0,2.2,0.2,3.6,0.7,4s1.9,0.6,4.4,0.6c2.3,0,3.7-0.1,4.2-0.4c0.6-0.3,0.9-1.1,0.9-2.4h1.8 c0,2-0.4,3.2-1.2,3.7s-2.7,0.8-5.7,0.8s-5-0.4-5.8-1.1s-1.2-2.5-1.2-5.2c0-2.8,0.4-4.5,1.2-5.3c0.8-0.7,2.7-1.1,5.8-1.1 c3,0,4.9,0.3,5.7,0.7c0.8,0.5,1.2,1.7,1.2,3.7h-1.8c0-1.3-0.3-2.1-0.8-2.4s-2-0.4-4.3-0.4c-2.5,0-3.9,0.2-4.4,0.6 C199.4,67.5,199.1,68.8,199.1,71.1z"/> <path class="st0" d="M228.5,64.9l6.5,12.3h-2.1l-1.5-2.7h-8.8l-1.4,2.7h-2.1l6.5-12.3H228.5z M230.7,72.9l-3.3-6.5h-0.5l-3.3,6.5 H230.7z"/> <path class="st0" d="M242.7,64.9H253c1.5,0,2.6,0.3,3.1,0.8c0.8,0.8,1.2,2.6,1.2,5.3c0,2.7-0.4,4.5-1.2,5.3 c-0.6,0.6-1.6,0.9-3.1,0.9h-10.3V64.9z M244.5,75.6h8.5c1,0,1.7-0.3,2-0.9s0.5-1.8,0.5-3.6c0-1.8-0.2-3-0.5-3.6s-1-0.9-2-0.9h-8.5 V75.6z"/> <path class="st0" d="M266.5,64.9h11.8v1.7h-10v3.6h9.6v1.7h-9.6v3.8h10v1.7h-11.8V64.9z"/> <path class="st0" d="M290.9,64.9l6.4,10.1l6.4-10.1h3.3v12.3h-2V66.6h-0.4l-6.9,10.7h-1.2l-6.9-10.7h-0.3v10.7h-1.8V64.9H290.9z"/> <path class="st0" d="M329,64.9h2.5l-7.3,7.4v4.9h-1.8v-4.9l-7.3-7.4h2.5l5.7,5.9L329,64.9z"/> </g> </svg>