<svg xmlns:xlink="http://www.w3.org/1999/xlink" width="155" height="38" viewBox="0 0 155 38" fill="none" xmlns="http://www.w3.org/2000/svg"><path d="M37.0061 18.339H32.6881V18.3684H29.2685L28.573 22.7482H32.1665C30.4857 28.8329 24.9795 33.3008 18.4591 33.3008C10.6056 33.3008 4.23008 26.834 4.23008 18.8681C4.23008 18.7505 4.23008 18.6624 4.23008 18.5448C4.40396 10.7259 10.7215 4.43544 18.4591 4.43544C20.024 4.43544 21.5889 4.69999 23.0669 5.1997V0.731737C21.1252 0.0556639 20.5166 0.0556641 18.4591 0.0556641C8.34519 0.0556641 0.0859874 8.31551 -0.0878906 18.5448C-0.0878906 18.6624 -0.0878906 18.7505 -0.0878906 18.8681C-0.0878906 29.2444 8.22927 37.6806 18.4591 37.6806C28.6889 37.6806 37.0061 29.2444 37.0061 18.8681C37.0061 18.7212 37.0061 18.5154 37.0061 18.339Z" fill="#FFFFFF"></path><path d="M29.2682 18.3685V3.93583L24.9502 1.49609V10.1381" fill="#FFFFFF"></path><path d="M24.9503 10.1382C23.1535 8.75664 20.8931 7.93359 18.4588 7.93359C12.489 7.93359 7.64941 12.8425 7.64941 18.8977C7.64941 24.953 12.489 29.8619 18.4588 29.8619C23.0666 29.8619 27.0078 26.9224 28.5727 22.7778L29.2682 18.398C28.8625 12.7543 24.9503 10.1382 24.9503 10.1382ZM18.4588 25.4821C14.8943 25.4821 11.9674 22.5426 11.9674 18.8977C11.9674 15.2822 14.8653 12.3134 18.4588 12.3134C22.0233 12.3134 24.9503 15.2528 24.9503 18.8977C24.9503 22.5132 22.0233 25.4821 18.4588 25.4821Z" fill="#FFFFFF"></path><path d="M52.0102 4.44744C52.4166 4.90032 52.7269 5.45511 52.9412 6.11179C53.16 6.76848 53.2694 7.51347 53.2694 8.34678C53.2694 9.18009 53.1577 9.92735 52.9345 10.5886C52.7157 11.2452 52.4076 11.7932 52.0102 12.2325C51.5995 12.69 51.1128 13.0341 50.5502 13.2651C49.9921 13.4961 49.3536 13.6116 48.6347 13.6116C47.9338 13.6116 47.2953 13.4938 46.7193 13.2583C46.1478 13.0228 45.6611 12.6809 45.2593 12.2325C44.8574 11.7842 44.5471 11.2339 44.3283 10.5818C44.114 9.92962 44.0068 9.18462 44.0068 8.34678C44.0068 7.52253 44.114 6.78433 44.3283 6.13217C44.5426 5.47549 44.8552 4.91391 45.2659 4.44744C45.6589 4.00361 46.1455 3.66395 46.726 3.42845C47.3109 3.19295 47.9471 3.0752 48.6347 3.0752C49.3491 3.0752 49.9899 3.19521 50.5569 3.43524C51.1284 3.67074 51.6129 4.00814 52.0102 4.44744ZM51.8897 8.34678C51.8897 7.03341 51.5995 6.02121 51.019 5.31018C50.4386 4.59463 49.6461 4.23685 48.6414 4.23685C47.6279 4.23685 46.8309 4.59463 46.2505 5.31018C45.6745 6.02121 45.3865 7.03341 45.3865 8.34678C45.3865 9.67374 45.6812 10.6905 46.2706 11.397C46.8599 12.0989 47.6502 12.4499 48.6414 12.4499C49.6327 12.4499 50.4207 12.0989 51.0056 11.397C51.595 10.6905 51.8897 9.67374 51.8897 8.34678Z" fill="#FFFFFF"></path><path d="M61.5273 13.401H60.2682V9.08046C60.2682 8.73173 60.2481 8.40566 60.2079 8.10222C60.1677 7.79426 60.094 7.55423 59.9869 7.38214C59.8752 7.19192 59.7145 7.05153 59.5047 6.96095C59.2948 6.86585 59.0224 6.81829 58.6876 6.81829C58.3438 6.81829 57.9843 6.90434 57.6093 7.07644C57.2342 7.24853 56.8748 7.46818 56.531 7.73539V13.401H55.2719V5.81289H56.531V6.65525C56.9239 6.32465 57.3302 6.0665 57.7499 5.88082C58.1696 5.69514 58.6005 5.6023 59.0425 5.6023C59.8507 5.6023 60.4668 5.84912 60.891 6.34276C61.3152 6.83641 61.5273 7.54744 61.5273 8.47585V13.401Z" fill="#FFFFFF"></path><path d="M70.2138 9.7394H64.7018C64.7018 10.2059 64.7711 10.6135 64.9095 10.9622C65.0479 11.3064 65.2376 11.5894 65.4787 11.8114C65.7109 12.0287 65.9855 12.1918 66.3025 12.3005C66.624 12.4092 66.9767 12.4635 67.3607 12.4635C67.8697 12.4635 68.381 12.3616 68.8944 12.1578C69.4124 11.9495 69.7807 11.7457 69.9995 11.5464H70.0665V12.939C69.6423 13.1202 69.2092 13.2719 68.7672 13.3942C68.3251 13.5165 67.8608 13.5776 67.3741 13.5776C66.1329 13.5776 65.164 13.2379 64.4674 12.5586C63.7709 11.8748 63.4226 10.9056 63.4226 9.65109C63.4226 8.41019 63.7553 7.42516 64.4206 6.69601C65.0903 5.96687 65.9699 5.6023 67.0593 5.6023C68.0684 5.6023 68.8453 5.9012 69.39 6.49901C69.9392 7.09682 70.2138 7.94598 70.2138 9.04649V9.7394ZM68.9882 8.76117C68.9837 8.0909 68.8163 7.57235 68.4859 7.20551C68.1599 6.83867 67.6621 6.65525 66.9924 6.65525C66.3182 6.65525 65.7801 6.85679 65.3783 7.25986C64.9809 7.66292 64.7554 8.16336 64.7018 8.76117H68.9882Z" fill="#FFFFFF"></path><path d="M85.3634 12.6537C84.8186 12.9073 84.2226 13.1293 83.5752 13.3195C82.9322 13.5051 82.3093 13.598 81.7066 13.598C80.9297 13.598 80.2175 13.4893 79.5701 13.2719C78.9227 13.0545 78.3713 12.7284 77.9158 12.2937C77.456 11.8544 77.101 11.3064 76.851 10.6497C76.6009 9.98849 76.4759 9.21632 76.4759 8.3332C76.4759 6.71639 76.9403 5.44152 77.869 4.50858C78.8021 3.5711 80.0813 3.10237 81.7066 3.10237C82.2736 3.10237 82.8518 3.17257 83.4412 3.31296C84.0351 3.44883 84.6735 3.68206 85.3567 4.01267V5.60909H85.2361C85.0977 5.5004 84.8968 5.35774 84.6334 5.18111C84.3699 5.00449 84.111 4.8573 83.8565 4.73955C83.5484 4.59915 83.1979 4.48367 82.805 4.39309C82.4165 4.29799 81.9745 4.25043 81.4789 4.25043C80.3626 4.25043 79.4786 4.61501 78.8267 5.34415C78.1793 6.06877 77.8556 7.05153 77.8556 8.29244C77.8556 9.60127 78.1949 10.6203 78.8736 11.3494C79.5522 12.074 80.4765 12.4363 81.6463 12.4363C82.0749 12.4363 82.5013 12.3933 82.9255 12.3073C83.3541 12.2212 83.7292 12.1103 84.0507 11.9744V9.49485H81.3784V8.31282H85.3634V12.6537Z" fill="#FFFFFF"></path><path d="M92.2483 7.20551H92.1813C91.9938 7.16022 91.8107 7.12852 91.6322 7.1104C91.458 7.08776 91.2504 7.07644 91.0093 7.07644C90.6208 7.07644 90.2458 7.16475 89.8841 7.34138C89.5225 7.51347 89.1742 7.73765 88.8393 8.01391V13.401H87.5802V5.81289H88.8393V6.93378C89.3394 6.52618 89.7792 6.2386 90.1587 6.07103C90.5427 5.89894 90.9334 5.81289 91.3308 5.81289C91.5496 5.81289 91.7081 5.81968 91.8063 5.83327C91.9045 5.84233 92.0519 5.8627 92.2483 5.89441V7.20551Z" fill="#FFFFFF"></path><path d="M99.8097 9.61033C99.8097 10.8467 99.4972 11.8227 98.8721 12.5382C98.247 13.2538 97.4098 13.6116 96.3605 13.6116C95.3023 13.6116 94.4607 13.2538 93.8356 12.5382C93.215 11.8227 92.9047 10.8467 92.9047 9.61033C92.9047 8.37395 93.215 7.39799 93.8356 6.68243C94.4607 5.96234 95.3023 5.6023 96.3605 5.6023C97.4098 5.6023 98.247 5.96234 98.8721 6.68243C99.4972 7.39799 99.8097 8.37395 99.8097 9.61033ZM98.5104 9.61033C98.5104 8.62757 98.3206 7.89842 97.9411 7.42289C97.5616 6.94284 97.0347 6.70281 96.3605 6.70281C95.6774 6.70281 95.1461 6.94284 94.7665 7.42289C94.3915 7.89842 94.204 8.62757 94.204 9.61033C94.204 10.5614 94.3937 11.2837 94.7732 11.7774C95.1528 12.2665 95.6819 12.5111 96.3605 12.5111C97.0303 12.5111 97.5549 12.2688 97.9344 11.7842C98.3184 11.2951 98.5104 10.5704 98.5104 9.61033Z" fill="#FFFFFF"></path><path d="M107.967 13.401H106.708V12.5586C106.284 12.8983 105.878 13.1587 105.489 13.3398C105.101 13.521 104.672 13.6116 104.203 13.6116C103.417 13.6116 102.806 13.3693 102.368 12.8847C101.931 12.3956 101.712 11.68 101.712 10.738V5.81289H102.971V10.1334C102.971 10.5184 102.989 10.849 103.024 11.1252C103.06 11.397 103.136 11.6302 103.252 11.8249C103.373 12.0242 103.529 12.1691 103.721 12.2597C103.913 12.3503 104.192 12.3956 104.558 12.3956C104.884 12.3956 105.239 12.3095 105.623 12.1374C106.012 11.9653 106.373 11.7457 106.708 11.4785V5.81289H107.967V13.401Z" fill="#FFFFFF"></path><path d="M117.029 9.51523C117.029 10.1311 116.942 10.695 116.768 11.2068C116.593 11.714 116.348 12.1442 116.031 12.4975C115.736 12.8326 115.388 13.093 114.986 13.2787C114.589 13.4599 114.167 13.5504 113.72 13.5504C113.332 13.5504 112.979 13.5074 112.662 13.4214C112.349 13.3353 112.03 13.2017 111.704 13.0206V16.1998H110.445V5.81289H111.704V6.6077C112.039 6.32238 112.414 6.08462 112.829 5.89441C113.249 5.69967 113.696 5.6023 114.169 5.6023C115.071 5.6023 115.772 5.94875 116.272 6.64167C116.776 7.33005 117.029 8.28791 117.029 9.51523ZM115.729 9.54919C115.729 8.63436 115.575 7.95051 115.267 7.49762C114.959 7.04474 114.486 6.81829 113.847 6.81829C113.486 6.81829 113.122 6.89755 112.756 7.05606C112.39 7.21457 112.039 7.42289 111.704 7.68104V11.9812C112.062 12.1442 112.367 12.2552 112.622 12.3141C112.881 12.3729 113.173 12.4024 113.499 12.4024C114.2 12.4024 114.747 12.1623 115.14 11.6823C115.533 11.2022 115.729 10.4912 115.729 9.54919Z" fill="#FFFFFF"></path><path d="M53.0015 25.4024C53.0015 26.3217 52.8028 27.155 52.4054 27.9023C52.0125 28.6496 51.4878 29.2293 50.8315 29.6414C50.3761 29.9267 49.8671 30.1328 49.3045 30.2596C48.7464 30.3864 48.0097 30.4498 47.0943 30.4498H44.5761V20.3346H47.0676C48.0409 20.3346 48.8133 20.407 49.3849 20.552C49.9608 20.6924 50.4475 20.8871 50.8449 21.1362C51.5236 21.5664 52.0527 22.1393 52.4322 22.8549C52.8117 23.5704 53.0015 24.4196 53.0015 25.4024ZM51.6151 25.382C51.6151 24.5894 51.4789 23.9214 51.2066 23.378C50.9342 22.8345 50.5279 22.4065 49.9876 22.094C49.5947 21.8676 49.1772 21.7114 48.7352 21.6253C48.2932 21.5347 47.7641 21.4894 47.1479 21.4894H45.9022V29.2949H47.1479C47.7864 29.2949 48.3423 29.2474 48.8156 29.1523C49.2933 29.0572 49.7309 28.8805 50.1283 28.6224C50.6239 28.3008 50.9945 27.8774 51.24 27.352C51.4901 26.8267 51.6151 26.17 51.6151 25.382Z" fill="#FFFFFF"></path><path d="M56.3971 21.5913H54.9772V20.2666H56.3971V21.5913ZM56.3167 30.4498H55.0576V22.8617H56.3167V30.4498Z" fill="#FFFFFF"></path><path d="M64.876 29.587C64.876 30.8732 64.588 31.8175 64.012 32.4198C63.436 33.0222 62.5497 33.3233 61.3531 33.3233C60.9558 33.3233 60.5673 33.2939 60.1878 33.235C59.8127 33.1807 59.4421 33.1014 59.076 32.9973V31.6929H59.143C59.3484 31.7745 59.6743 31.8741 60.1208 31.9919C60.5673 32.1141 61.0138 32.1753 61.4603 32.1753C61.8889 32.1753 62.2439 32.1232 62.5252 32.019C62.8065 31.9149 63.0253 31.7699 63.1815 31.5843C63.3378 31.4076 63.4494 31.1948 63.5164 30.9457C63.5834 30.6966 63.6169 30.4181 63.6169 30.1101V29.4172C63.2373 29.7252 62.8735 29.9561 62.5252 30.1101C62.1814 30.2596 61.7416 30.3343 61.2058 30.3343C60.3128 30.3343 59.6029 30.0082 59.076 29.3561C58.5536 28.6994 58.2924 27.7755 58.2924 26.5844C58.2924 25.9322 58.3817 25.3707 58.5603 24.8997C58.7434 24.4241 58.9912 24.0143 59.3037 23.6701C59.594 23.3485 59.9467 23.0994 60.3619 22.9228C60.7772 22.7417 61.1902 22.6511 61.6009 22.6511C62.034 22.6511 62.3957 22.6964 62.6859 22.787C62.9806 22.873 63.2909 23.0066 63.6169 23.1878L63.6972 22.8617H64.876V29.587ZM63.6169 28.3642V24.2271C63.282 24.0732 62.9694 23.9645 62.6792 23.9011C62.3935 23.8331 62.1077 23.7992 61.822 23.7992C61.1299 23.7992 60.5852 24.0347 60.1878 24.5057C59.7904 24.9767 59.5917 25.6605 59.5917 26.5572C59.5917 27.4087 59.7391 28.054 60.0338 28.4933C60.3284 28.9326 60.8173 29.1523 61.5005 29.1523C61.8666 29.1523 62.2327 29.0821 62.5989 28.9417C62.9694 28.7967 63.3088 28.6043 63.6169 28.3642Z" fill="#FFFFFF"></path><path d="M68.7069 21.5913H67.2871V20.2666H68.7069V21.5913ZM68.6265 30.4498H67.3674V22.8617H68.6265V30.4498Z" fill="#FFFFFF"></path><path d="M75.0025 30.3818C74.7658 30.4452 74.5069 30.4973 74.2256 30.5381C73.9487 30.5788 73.7009 30.5992 73.4822 30.5992C72.7187 30.5992 72.1382 30.3909 71.7408 29.9742C71.3435 29.5576 71.1448 28.8896 71.1448 27.9702V23.935H70.2942V22.8617H71.1448V20.681H72.4039V22.8617H75.0025V23.935H72.4039V27.3928C72.4039 27.7913 72.4128 28.1038 72.4307 28.3303C72.4485 28.5522 72.511 28.7605 72.6182 28.9553C72.7164 29.1364 72.8504 29.27 73.02 29.3561C73.1942 29.4376 73.4576 29.4783 73.8103 29.4783C74.0157 29.4783 74.23 29.4489 74.4533 29.39C74.6765 29.3266 74.8373 29.2745 74.9355 29.2338H75.0025V30.3818Z" fill="#FFFFFF"></path><path d="M82.3428 30.4498H81.0904V29.6414C80.9788 29.7184 80.827 29.8271 80.635 29.9675C80.4475 30.1033 80.2644 30.212 80.0858 30.2935C79.876 30.3977 79.6348 30.4837 79.3625 30.5517C79.0901 30.6241 78.7709 30.6604 78.4048 30.6604C77.7306 30.6604 77.159 30.4339 76.6902 29.981C76.2214 29.5282 75.987 28.9507 75.987 28.2488C75.987 27.6736 76.1075 27.2094 76.3487 26.8561C76.5942 26.4984 76.9425 26.2176 77.3934 26.0138C77.8489 25.81 78.3958 25.6718 79.0343 25.5994C79.6728 25.5269 80.3582 25.4726 81.0904 25.4363V25.2393C81.0904 24.9495 81.0391 24.7095 80.9364 24.5192C80.8382 24.329 80.6953 24.1796 80.5077 24.0709C80.3292 23.9667 80.1148 23.8965 79.8648 23.8603C79.6148 23.8241 79.3536 23.806 79.0812 23.806C78.7508 23.806 78.3824 23.8512 77.9761 23.9418C77.5698 24.0279 77.1501 24.1547 76.717 24.3222H76.65V23.0247C76.8956 22.9568 77.2506 22.8821 77.7149 22.8005C78.1793 22.719 78.6369 22.6783 79.0879 22.6783C79.6148 22.6783 80.0724 22.7236 80.4609 22.8141C80.8538 22.9002 81.1931 23.0496 81.4789 23.2625C81.7602 23.4708 81.9745 23.7403 82.1218 24.0709C82.2692 24.4015 82.3428 24.8114 82.3428 25.3005V30.4498ZM81.0904 28.5816V26.4689C80.7064 26.4916 80.2532 26.5255 79.7308 26.5708C79.2129 26.6161 78.8021 26.6818 78.4985 26.7678C78.1369 26.872 77.8444 27.035 77.6212 27.2569C77.3979 27.4743 77.2863 27.7755 77.2863 28.1604C77.2863 28.5952 77.4158 28.9236 77.6747 29.1455C77.9337 29.3629 78.3289 29.4715 78.8602 29.4715C79.3022 29.4715 79.7063 29.3855 80.0724 29.2134C80.4385 29.0368 80.7779 28.8262 81.0904 28.5816Z" fill="#FFFFFF"></path><path d="M86.0398 30.4498H84.7807V19.8794H86.0398V30.4498Z" fill="#FFFFFF"></path><path d="M100.7 27.5626C100.7 27.9566 100.609 28.3461 100.426 28.7311C100.247 29.116 99.995 29.4421 99.669 29.7093C99.3119 29.9992 98.8944 30.2256 98.4166 30.3886C97.9433 30.5517 97.3718 30.6332 96.7021 30.6332C95.9832 30.6332 95.3358 30.5653 94.7598 30.4294C94.1883 30.2935 93.6057 30.092 93.0118 29.8248V28.1401H93.1056C93.6101 28.5658 94.1928 28.8941 94.8536 29.1251C95.5144 29.3561 96.135 29.4715 96.7155 29.4715C97.537 29.4715 98.1755 29.3153 98.6309 29.0028C99.0908 28.6903 99.3208 28.2737 99.3208 27.7528C99.3208 27.3045 99.2114 26.9739 98.9926 26.761C98.7783 26.5482 98.4501 26.3829 98.0081 26.2651C97.6732 26.1745 97.3093 26.0998 96.9164 26.0409C96.528 25.9821 96.115 25.9073 95.6774 25.8168C94.7933 25.6265 94.137 25.3027 93.7084 24.8453C93.2842 24.3834 93.0721 23.7833 93.0721 23.0451C93.0721 22.1982 93.4248 21.5053 94.1303 20.9664C94.8357 20.4229 95.731 20.1512 96.816 20.1512C97.5169 20.1512 98.1599 20.2191 98.7448 20.355C99.3297 20.4908 99.8476 20.6584 100.299 20.8577V22.4473H100.205C99.8253 22.1212 99.3252 21.8517 98.7046 21.6389C98.0885 21.4215 97.4567 21.3128 96.8093 21.3128C96.0993 21.3128 95.5278 21.4623 95.0947 21.7612C94.6661 22.0601 94.4518 22.445 94.4518 22.916C94.4518 23.3372 94.5589 23.6678 94.7732 23.9078C94.9876 24.1479 95.3648 24.3313 95.9051 24.4581C96.1909 24.5215 96.5972 24.5985 97.124 24.6891C97.6509 24.7797 98.0974 24.8725 98.4635 24.9676C99.2047 25.1669 99.7628 25.468 100.138 25.8711C100.513 26.2742 100.7 26.838 100.7 27.5626Z" fill="#FFFFFF"></path><path d="M109.106 26.6591C109.106 27.8955 108.793 28.8715 108.168 29.587C107.543 30.3026 106.706 30.6604 105.657 30.6604C104.598 30.6604 103.757 30.3026 103.132 29.587C102.511 28.8715 102.201 27.8955 102.201 26.6591C102.201 25.4228 102.511 24.4468 103.132 23.7312C103.757 23.0111 104.598 22.6511 105.657 22.6511C106.706 22.6511 107.543 23.0111 108.168 23.7312C108.793 24.4468 109.106 25.4228 109.106 26.6591ZM107.806 26.6591C107.806 25.6764 107.617 24.9472 107.237 24.4717C106.858 23.9916 106.331 23.7516 105.657 23.7516C104.973 23.7516 104.442 23.9916 104.063 24.4717C103.688 24.9472 103.5 25.6764 103.5 26.6591C103.5 27.6102 103.69 28.3325 104.069 28.8262C104.449 29.3153 104.978 29.5599 105.657 29.5599C106.326 29.5599 106.851 29.3176 107.23 28.833C107.614 28.3439 107.806 27.6192 107.806 26.6591Z" fill="#FFFFFF"></path><path d="M112.334 30.4498H111.075V19.8794H112.334V30.4498Z" fill="#FFFFFF"></path><path d="M121.027 30.4498H119.768V29.6074C119.344 29.9471 118.938 30.2075 118.549 30.3886C118.161 30.5698 117.732 30.6604 117.263 30.6604C116.477 30.6604 115.866 30.4181 115.428 29.9335C114.991 29.4444 114.772 28.7288 114.772 27.7868V22.8617H116.031V27.1822C116.031 27.5672 116.049 27.8978 116.084 28.174C116.12 28.4458 116.196 28.679 116.312 28.8737C116.433 29.073 116.589 29.2179 116.781 29.3085C116.973 29.3991 117.252 29.4444 117.618 29.4444C117.944 29.4444 118.299 29.3583 118.683 29.1862C119.071 29.0141 119.433 28.7945 119.768 28.5273V22.8617H121.027V30.4498Z" fill="#FFFFFF"></path><path d="M127.39 30.3818C127.153 30.4452 126.894 30.4973 126.613 30.5381C126.336 30.5788 126.088 30.5992 125.869 30.5992C125.106 30.5992 124.525 30.3909 124.128 29.9742C123.731 29.5576 123.532 28.8896 123.532 27.9702V23.935H122.681V22.8617H123.532V20.681H124.791V22.8617H127.39V23.935H124.791V27.3928C124.791 27.7913 124.8 28.1038 124.818 28.3303C124.836 28.5522 124.898 28.7605 125.005 28.9553C125.104 29.1364 125.238 29.27 125.407 29.3561C125.581 29.4376 125.845 29.4783 126.198 29.4783C126.403 29.4783 126.617 29.4489 126.84 29.39C127.064 29.3266 127.224 29.2745 127.323 29.2338H127.39V30.3818Z" fill="#FFFFFF"></path><path d="M130.27 21.5913H128.85V20.2666H130.27V21.5913ZM130.189 30.4498H128.93V22.8617H130.189V30.4498Z" fill="#FFFFFF"></path><path d="M139.057 26.6591C139.057 27.8955 138.744 28.8715 138.119 29.587C137.494 30.3026 136.657 30.6604 135.607 30.6604C134.549 30.6604 133.708 30.3026 133.082 29.587C132.462 28.8715 132.152 27.8955 132.152 26.6591C132.152 25.4228 132.462 24.4468 133.082 23.7312C133.708 23.0111 134.549 22.6511 135.607 22.6511C136.657 22.6511 137.494 23.0111 138.119 23.7312C138.744 24.4468 139.057 25.4228 139.057 26.6591ZM137.757 26.6591C137.757 25.6764 137.567 24.9472 137.188 24.4717C136.808 23.9916 136.282 23.7516 135.607 23.7516C134.924 23.7516 134.393 23.9916 134.013 24.4717C133.638 24.9472 133.451 25.6764 133.451 26.6591C133.451 27.6102 133.641 28.3325 134.02 28.8262C134.4 29.3153 134.929 29.5599 135.607 29.5599C136.277 29.5599 136.802 29.3176 137.181 28.833C137.565 28.3439 137.757 27.6192 137.757 26.6591Z" fill="#FFFFFF"></path><path d="M147.268 30.4498H146.008V26.1292C146.008 25.7805 145.988 25.4545 145.948 25.151C145.908 24.8431 145.834 24.603 145.727 24.4309C145.616 24.2407 145.455 24.1003 145.245 24.0097C145.035 23.9146 144.763 23.8671 144.428 23.8671C144.084 23.8671 143.725 23.9531 143.35 24.1252C142.975 24.2973 142.615 24.517 142.271 24.7842V30.4498H141.012V22.8617H142.271V23.7041C142.664 23.3734 143.071 23.1153 143.49 22.9296C143.91 22.7439 144.341 22.6511 144.783 22.6511C145.591 22.6511 146.207 22.8979 146.631 23.3916C147.055 23.8852 147.268 24.5962 147.268 25.5246V30.4498Z" fill="#FFFFFF"></path> 2 <path d="M155.037 28.2623C155.037 28.9553 154.753 29.5236 154.186 29.9675C153.623 30.4113 152.853 30.6332 151.875 30.6332C151.322 30.6332 150.813 30.5675 150.348 30.4362C149.889 30.3003 149.502 30.1531 149.19 29.9946V28.5612H149.257C149.654 28.8647 150.096 29.107 150.583 29.2881C151.069 29.4648 151.536 29.5531 151.983 29.5531C152.536 29.5531 152.969 29.4625 153.282 29.2813C153.594 29.1002 153.751 28.8149 153.751 28.4254C153.751 28.1265 153.666 27.9 153.496 27.7461C153.327 27.5921 153.001 27.4607 152.518 27.352C152.34 27.3113 152.105 27.2637 151.815 27.2094C151.529 27.155 151.268 27.0962 151.032 27.0328C150.375 26.8561 149.909 26.598 149.632 26.2583C149.359 25.9141 149.223 25.4929 149.223 24.9948C149.223 24.6823 149.286 24.3879 149.411 24.1116C149.54 23.8354 149.734 23.5886 149.993 23.3712C150.243 23.1583 150.56 22.9908 150.944 22.8685C151.333 22.7417 151.766 22.6783 152.244 22.6783C152.69 22.6783 153.141 22.7349 153.597 22.8481C154.057 22.9568 154.438 23.0904 154.742 23.2489V24.6143H154.675C154.353 24.3743 153.963 24.1728 153.503 24.0097C153.043 23.8422 152.592 23.7584 152.15 23.7584C151.69 23.7584 151.302 23.849 150.985 24.0301C150.668 24.2068 150.509 24.4717 150.509 24.8249C150.509 25.1374 150.605 25.3729 150.797 25.5314C150.985 25.69 151.288 25.819 151.708 25.9187C151.94 25.973 152.199 26.0274 152.485 26.0817C152.775 26.136 153.016 26.1859 153.208 26.2312C153.793 26.367 154.244 26.6003 154.561 26.9309C154.878 27.266 155.037 27.7098 155.037 28.2623Z" fill="#FFFFFF"></path></svg>